<?xml version="1.0" encoding="UTF-8" standalone="no"?>
<!-- Created with Inkscape (http://www.inkscape.org/) -->

<svg
   width="484.26395"
   height="101.68673"
   viewBox="0 0 484.26395 101.68673"
   version="1.1"
   id="svg1"
   xml:space="preserve"
   sodipodi:docname="logo.svg"
   inkscape:version="1.3.2 (091e20e, 2023-11-25, custom)"
   xmlns:inkscape="http://www.inkscape.org/namespaces/inkscape"
   xmlns:sodipodi="http://sodipodi.sourceforge.net/DTD/sodipodi-0.dtd"
   xmlns="http://www.w3.org/2000/svg"
   xmlns:svg="http://www.w3.org/2000/svg"><sodipodi:namedview
     id="namedview1"
     pagecolor="#ffffff"
     bordercolor="#111111"
     borderopacity="1"
     inkscape:showpageshadow="0"
     inkscape:pageopacity="0"
     inkscape:pagecheckerboard="1"
     inkscape:deskcolor="#d1d1d1"
     inkscape:document-units="px"
     showguides="true"
     inkscape:lockguides="false"
     showgrid="true"
     inkscape:export-bgcolor="#ffffff00"
     inkscape:zoom="1"
     inkscape:cx="224.5"
     inkscape:cy="-27.5"
     inkscape:window-width="1920"
     inkscape:window-height="1001"
     inkscape:window-x="-9"
     inkscape:window-y="-9"
     inkscape:window-maximized="1"
     inkscape:current-layer="layer1" /><defs
     id="defs1"><rect
       x="731.94775"
       y="560.76642"
       width="337.26477"
       height="30.05064"
       id="rect44-9" /></defs><g
     inkscape:label="Camada 1"
     inkscape:groupmode="layer"
     id="layer1"
     transform="translate(-564.23716,-479.34961)"><text
       xml:space="preserve"
       id="text44-9"
       style="font-style:oblique;font-variant:normal;font-weight:600;font-stretch:normal;font-size:18.6667px;font-family:'Nachlieli CLM';-inkscape-font-specification:'Nachlieli CLM Semi-Bold Oblique';letter-spacing:6.35px;white-space:pre;shape-inside:url(#rect44-9);fill:#000000;fill-opacity:1;stroke:none"
       transform="translate(4.142008,-1.4759987)"><tspan
         x="731.94727"
         y="578.03232"
         id="tspan1">SOLUÇÕES CONTÁBEIS</tspan></text><path
       id="path3-0"
       style="fill:#000000;fill-opacity:1;stroke:none;stroke-width:1.5339"
       d="m 717.77344,479.34961 c -20.84703,0 -40.34325,17.11772 -43.4082,37.97851 -1.48328,10.09552 -0.22774,20.21975 5.22461,26.9961 5.81407,7.2259 14.82776,8.97265 25.58593,8.97265 20.84703,0 39.437,-15.96148 42.50196,-36.82226 5.4401,-37.02656 -20.14185,-37.125 -29.9043,-37.125 z m -2.25976,17.37109 c 8.61349,-0.15954 11.98757,7.78434 9.75194,19.32618 -2.20581,11.3879 -9.86817,19.79803 -18.04492,19.32812 -8.47687,-0.48716 -12.73425,-7.20185 -9.75,-19.32812 3.06548,-12.45633 9.67521,-19.17119 18.04298,-19.32618 z" /><path
       style="fill:#000000;fill-opacity:1;stroke:none"
       d="m 579.65217,480.75889 -15.41501,70.48255 h 23.43083 l 15.27026,-70.48255 z"
       id="path1"
       sodipodi:nodetypes="ccccc" /><path
       style="fill:#000000;fill-opacity:1;stroke:none"
       d="m 611.09882,480.75889 -15.2253,70.48255 h 21.91305 l 7.82607,-39.84223 14.91795,39.84223 h 21.86455 l 14.91712,-70.48255 h -21.5336 l -8.1581,40.69565 -14.56127,-40.69565 z"
       id="path2"
       sodipodi:nodetypes="ccccccccccc" /><path
       style="fill:#000000;fill-opacity:1;stroke:none"
       d="m 749.85155,480.75889 7.9034,70.48255 h 22.71145 l 39.51779,-70.48255 h -22.54545 l -22.6087,44.96443 -2.08695,-44.96443 z"
       id="path4"
       sodipodi:nodetypes="cccccccc" /><path
       id="path5"
       style="fill:#000000;fill-opacity:1;stroke:none"
       d="m 828.56836,480.75977 -39.75195,70.48242 h 22.72461 l 3.94726,-8.82227 h 22.70899 l 0.20117,8.82227 h 22.78711 l -8.9961,-70.48242 z m 7.36914,21.92773 1.24023,24.4668 -13.71679,-0.0508 c 4.12896,-8.15337 8.30729,-16.28254 12.47656,-24.41602 z" /><path
       id="path5-2"
       style="fill:#000000;fill-opacity:1;stroke:none"
       d="m 1015.8839,480.75902 -39.75192,70.48242 h 22.72462 l 3.9473,-8.82227 h 22.7089 l 0.2012,8.82227 h 22.7871 l -8.9961,-70.48242 z m 7.3692,21.92773 1.2402,24.4668 -13.7168,-0.0508 c 4.129,-8.15337 8.3073,-16.28254 12.4766,-24.41602 z" /><path
       style="fill:#901d78;fill-opacity:1;stroke:none"
       d="m 859.63637,480.75889 3.66844,33.05929 h 16.41781 l -7.75424,37.42326 h 28.4585 l 8.91699,-37.42326 h 59.90514 l 4.26879,-7.87351 h -54.92492 l 1.28064,-4.88542 66.40316,0.37945 4.4585,-7.58894 -69.24901,-0.66403 0.85375,-4.26877 81.10668,0.37944 4.5534,-8.72727 z"
       id="path6"
       sodipodi:nodetypes="ccccccccccccccccc" /><path
       style="fill:#901d78;fill-opacity:1;stroke:none"
       d="m 923.22653,542.41897 -1.88701,8.82247 h 28.77151 l 1.88701,-8.82247 z"
       id="path8"
       sodipodi:nodetypes="ccccc" /><path
       style="fill:#901d78;fill-opacity:1;stroke:none"
       d="m 925.83376,530.22925 -1.88701,8.82247 h 28.77151 l 1.88701,-8.82247 z"
       id="path8-4"
       sodipodi:nodetypes="ccccc" /><path
       style="fill:#901d78;fill-opacity:1;stroke:none"
       d="m 928.36275,518.40529 -1.88701,8.82247 h 28.77151 l 1.88701,-8.82247 z"
       id="path8-6"
       sodipodi:nodetypes="ccccc" /></g></svg>
